<svg xmlns="http://www.w3.org/2000/svg" viewBox="0 0 16 16" fill="none" shape-rendering="crispEdges"><metadata xmlns:rdf="http://www.w3.org/1999/02/22-rdf-syntax-ns#" xmlns:xsi="http://www.w3.org/2001/XMLSchema-instance" xmlns:dc="http://purl.org/dc/elements/1.1/" xmlns:dcterms="http://purl.org/dc/terms/"><rdf:RDF><rdf:Description><dc:title>Pixel Art</dc:title><dc:creator>DiceBear</dc:creator><dc:source xsi:type="dcterms:URI">https://www.figma.com/community/file/1198754108850888330</dc:source><dcterms:license xsi:type="dcterms:URI">https://creativecommons.org/publicdomain/zero/1.0/</dcterms:license><dc:rights>„Pixel Art” (https://www.figma.com/community/file/1198754108850888330) by „DiceBear”, licensed under „CC0 1.0” (https://creativecommons.org/publicdomain/zero/1.0/)</dc:rights></rdf:Description></rdf:RDF></metadata><mask id="viewboxMask"><rect width="16" height="16" rx="0" ry="0" x="0" y="0" fill="#fff" /></mask><g mask="url(#viewboxMask)"><rect fill="#4caf50" width="16" height="16" x="0" y="0" /><path d="M4 2h8v1h1v3h1v2h-1v3h-1v1H9v1h4v1h1v2H2v-2h1v-1h4v-1H4v-1H3V8H2V6h1V3h1V2Z" fill="#a26d3d"/><path d="M4 2h8v1h1v3h1v2h-1v3h-1v1H4v-1H3V8H2V6h1V3h1V2Z" fill="#fff" fill-opacity=".1"/><path d="M5 13H3v1H2v2h12v-2h-1v-1h-2v1h-1v1H6v-1H5v-1Z" fill="#5bc0de"/><path fill="#fff" d="M4 5h3v3H4zM9 5h3v3H9z"/><path fill="#876658" d="M4 6h2v1H4zM9 6h2v1H9z"/><path fill="#fff" fill-opacity=".7" d="M4 6h1v1H4zM9 6h1v1H9z"/><mask id="beardVariant05-a" style="mask-type:luminance" maskUnits="userSpaceOnUse" x="3" y="6" width="10" height="6"><path opacity=".9" d="M3 6h1v2h1v1h6V8h1V6h1v5h-1v1H4v-1H3V6Z" fill="#612616"/></mask><g mask="url(#beardVariant05-a)"><path fill="#612616" d="M0 0h16v16H0z"/><path fill="#fff" fill-opacity=".3" d="M0 0h16v16H0z"/></g><path d="M6 9v1h3v1h1v-1H9V9H6Z" fill="#d29985"/><path d="M12 1H5v1H4v1H3v1H2v2h2V5h1V4h1V3h5v1h1v1h1v1h1V3h-1V2h-1V1ZM13 8h1v4h-2v-1h1V8ZM2 8h1v3h1v1H2V8Z" fill="#612616"/></g></svg>